<svg id="visual" viewBox="0 0 900 600" width="900" height="600" xmlns="http://www.w3.org/2000/svg" xmlns:xlink="http://www.w3.org/1999/xlink" version="1.1"><rect x="0" y="0" width="900" height="600" fill="#E8E8A6"></rect><g transform="translate(422.70286128499384 307.1952356227688)"><path d="M168.5 -200.3C216.6 -160.5 252.6 -105.7 265.8 -44.8C279 16.1 269.4 83 234.3 127.2C199.2 171.4 138.6 192.8 78.6 213.6C18.7 234.3 -40.6 254.3 -90.2 239.8C-139.9 225.3 -179.9 176.1 -200.2 123.9C-220.5 71.6 -221 16.3 -208.5 -33.6C-195.9 -83.5 -170.3 -127.9 -133.4 -169.8C-96.4 -211.6 -48.2 -250.8 6 -257.9C60.2 -265.1 120.4 -240.2 168.5 -200.3" fill="#019267"></path></g></svg>